<svg width="32" height="32" viewBox="0 0 32 32" fill="none" xmlns="http://www.w3.org/2000/svg">
<path d="M15.587 28.0013C13.7202 27.594 11.8386 26.7853 10.0964 25.5654C5.87915 22.6125 3.64683 18.068 4.01609 14.0352" stroke="#09235C" stroke-width="2" stroke-linecap="round"/>
<path d="M24.9171 11.7461C28.187 15.7351 28.3307 20.0294 27.0563 21.941C24.5076 25.7641 19.4102 23.2154 19.4102 23.2154" stroke="#09235C" stroke-width="2" stroke-linecap="round"/>
<path d="M20.0514 7.80111C18.1209 6.78815 16.0895 6.23599 14.1426 6.13281" stroke="#09235C" stroke-width="2" stroke-linecap="round"/>
<path d="M23.124 4.65021C24.2932 3.35467 25.6453 4.24675 26.6454 5.14946C27.6456 6.05218 28.6712 7.30599 27.5018 8.60153L16.8962 19.7769C16.5409 20.1707 16.043 20.4061 15.5133 20.4311L12.8494 20.5565C12.4858 20.5736 12.1764 20.2944 12.1563 19.9309L12.0089 17.2681C11.9796 16.7387 12.1629 16.2193 12.5183 15.8257L23.124 4.65021Z" stroke="#09235C" stroke-width="2" stroke-linecap="round" stroke-linejoin="round"/>
<path d="M8.24599 5.86719L8.36023 6.17634C8.79094 7.34203 9.70866 8.26113 10.8726 8.69247L11.1813 8.80687L10.8726 8.92126C9.70866 9.35261 8.79094 10.2717 8.36023 11.4374L8.24599 11.7466L8.13175 11.4374C7.70104 10.2717 6.78332 9.35261 5.61928 8.92126L5.31055 8.80687L5.61928 8.69247C6.78332 8.26113 7.70104 7.34203 8.13175 6.17634L8.24599 5.86719Z" stroke="#09235C" stroke-width="2" stroke-linecap="round" stroke-linejoin="round"/>
</svg>
