<svg width="24" height="24" viewBox="0 0 24 24" fill="none" xmlns="http://www.w3.org/2000/svg">
<path d="M4.2632 10.5016C5.02601 11.2236 6.15855 11.4007 7.16654 11.1049L7.43995 11.0241C7.88265 10.8947 8.35745 10.9297 8.77486 11.1234L10.9601 12.1362C11.9185 12.5799 13.0238 12.5799 13.9812 12.1362L16.1665 11.1234C16.5849 10.9297 17.0587 10.8947 17.5014 11.0241L17.7748 11.1049C18.7828 11.4007 19.9163 11.2236 20.6791 10.5016C21.2279 9.98207 21.5597 9.2718 21.4497 8.50899C21.333 7.69754 20.9418 6.421 20.6013 5.4023C20.2822 4.44685 19.389 3.80469 18.382 3.80469H6.54676C5.53585 3.80469 4.63877 4.45268 4.32353 5.41398C3.9898 6.43073 3.60839 7.70143 3.49164 8.50899C3.38169 9.2718 3.71445 9.98207 4.2632 10.5016Z" stroke="#0C2867" stroke-width="1.5" stroke-linecap="round" stroke-linejoin="round"/>
<path d="M7.9541 10.9383L8.70037 7.99219" stroke="#0C2867" stroke-width="1.5" stroke-linecap="round" stroke-linejoin="round"/>
<path d="M16.9865 10.9383L16.2402 7.99219" stroke="#0C2867" stroke-width="1.5" stroke-linecap="round" stroke-linejoin="round"/>
<path d="M19.9312 11.0547V16.0304C19.9312 18.4716 18.4105 20.1967 15.9664 20.1967H8.97461C6.52954 20.1967 5.00879 18.4716 5.00879 16.0304V11.0547" stroke="#0C2867" stroke-width="1.5" stroke-linecap="round" stroke-linejoin="round"/>
<path d="M10.0713 20.1948V17.3362C10.0713 16.3574 10.8652 15.5625 11.845 15.5625H13.1605C14.1042 15.5625 14.869 16.3282 14.869 17.272V20.1948" stroke="#0C2867" stroke-width="1.5" stroke-linecap="round" stroke-linejoin="round"/>
</svg>
