<svg width="24" height="25" viewBox="0 0 24 25" fill="none" xmlns="http://www.w3.org/2000/svg">
<path d="M7.06417 20.4646L6.30425 20.8285C5.50541 21.2109 4.58106 20.628 4.58203 19.7426L4.59176 7.48663C4.59176 5.06385 5.94035 3.5625 8.35827 3.5625H15.6578C18.0825 3.5625 19.4009 5.06385 19.4009 7.48663L19.4184 19.7397C19.4194 20.6261 18.495 21.2099 17.6952 20.8265L16.9412 20.4656C16.4877 20.2476 15.9633 20.232 15.4972 20.4227L13.3508 21.2985C12.4858 21.6507 11.5157 21.6507 10.6507 21.2975L8.50811 20.4227C8.04204 20.232 7.51759 20.2476 7.06417 20.4646Z" stroke="#0C2867" stroke-width="1.5" stroke-linecap="round" stroke-linejoin="round"/>
<path d="M13.6323 9.61719H11.2747C10.5741 9.61719 10.0059 10.1854 10.0059 10.887C10.0059 11.5875 10.5741 12.1558 11.2747 12.1558H12.7254C13.4269 12.1558 13.9952 12.724 13.9952 13.4255C13.9952 14.1261 13.4269 14.6943 12.7254 14.6943H10.3678" stroke="#0C2867" stroke-width="1.5" stroke-linecap="round" stroke-linejoin="round"/>
<path d="M12 14.6953V15.7608" stroke="#0C2867" stroke-width="1.5" stroke-linecap="round" stroke-linejoin="round"/>
<path d="M12 8.54688V9.62204" stroke="#0C2867" stroke-width="1.5" stroke-linecap="round" stroke-linejoin="round"/>
</svg>
