<svg width="32" height="32" viewBox="0 0 32 32" fill="none" xmlns="http://www.w3.org/2000/svg">
<path d="M10.3762 4H21.6225C25.5533 4 28 6.77492 28 10.7018V21.2981C28 25.2251 25.5533 28 21.6212 28H10.3762C6.4454 28 4 25.2251 4 21.2981V10.7018C4 6.77492 6.45708 4 10.3762 4Z" stroke="#09235C" stroke-width="2" stroke-linecap="round" stroke-linejoin="round"/>
<path d="M19.0996 10.3203C23.2341 10.3203 19.0996 16.005 23.2341 16.005C19.0996 16.005 23.2341 21.6884 19.0996 21.6884" stroke="#09235C" stroke-width="2" stroke-linecap="round" stroke-linejoin="round"/>
<path d="M12.9001 10.3203C8.76562 10.3203 12.9001 16.005 8.76562 16.005C12.9001 16.005 8.76562 21.6884 12.9001 21.6884" stroke="#09235C" stroke-width="2" stroke-linecap="round" stroke-linejoin="round"/>
</svg>
