<svg width="20" height="16" viewBox="0 0 20 16" fill="none" xmlns="http://www.w3.org/2000/svg">
<path d="M19.6211 4.96387C19.7734 4.84277 20 4.95605 20 5.14746V13.1357C20 14.1709 19.1602 15.0107 18.125 15.0107H1.875C0.839844 15.0107 0 14.1709 0 13.1357V5.15137C0 4.95605 0.222656 4.84668 0.378906 4.96777C1.25391 5.64746 2.41406 6.51074 6.39844 9.40527C7.22266 10.0068 8.61328 11.2725 10 11.2646C11.3945 11.2764 12.8125 9.9834 13.6055 9.40527C17.5898 6.51074 18.7461 5.64355 19.6211 4.96387ZM10 10.0107C10.9062 10.0264 12.2109 8.87012 12.8672 8.39355C18.0508 4.63184 18.4453 4.30371 19.6406 3.36621C19.8672 3.19043 20 2.91699 20 2.62793V1.88574C20 0.850586 19.1602 0.0107422 18.125 0.0107422H1.875C0.839844 0.0107422 0 0.850586 0 1.88574V2.62793C0 2.91699 0.132812 3.18652 0.359375 3.36621C1.55469 4.2998 1.94922 4.63184 7.13281 8.39355C7.78906 8.87012 9.09375 10.0264 10 10.0107Z" fill="white"/>
</svg>
