<svg width="32" height="32" viewBox="0 0 32 32" fill="none" xmlns="http://www.w3.org/2000/svg">
<path d="M12.2098 27.6955V23.6066C12.2098 22.5665 13.0577 21.7214 14.1082 21.7144H17.9563C19.0118 21.7144 19.8675 22.5616 19.8675 23.6066V27.7082C19.8673 28.5913 20.5792 29.313 21.4709 29.3337H24.0363C26.5937 29.3337 28.6668 27.2812 28.6668 24.7494V13.1174C28.6532 12.1214 28.1808 11.1861 27.3841 10.5777L18.6105 3.58073C17.0734 2.36241 14.8884 2.36241 13.3514 3.58073L4.6162 10.5904C3.81651 11.1964 3.34335 12.1332 3.3335 13.1301V24.7494C3.3335 27.2812 5.40666 29.3337 7.96404 29.3337H10.5294C11.4433 29.3337 12.1841 28.6002 12.1841 27.6955" stroke="#061A47" stroke-width="1.5" stroke-linecap="round" stroke-linejoin="round"/>
</svg>
