<svg width="708" height="286" viewBox="0 0 708 286" fill="none" xmlns="http://www.w3.org/2000/svg">
<mask id="mask0_616_59" style="mask-type:luminance" maskUnits="userSpaceOnUse" x="9" y="5" width="689" height="275">
<path d="M697.35 5.71973H9.83008V279.81H697.35V5.71973Z" fill="white"/>
</mask>
<g mask="url(#mask0_616_59)">
<path d="M454.72 105.41C446.9 105.41 440.17 112.16 440.17 120.01V265.11C440.17 272.96 446.9 279.71 454.72 279.71C462.54 279.71 469.28 272.96 469.28 265.11V120.01C469.28 112.16 462.55 105.41 454.72 105.41Z" fill="#0C2867"/>
<path d="M597.09 250.51C577.84 250.51 559.7 240.28 550.77 223.23C527.59 178.98 558.92 134.7 600.6 134.7H610.44C636.77 134.7 659.74 152.68 666.47 178H592.67C590.34 178 588.07 178.89 586.33 180.44C573.68 191.76 583 207.2 594.83 207.2H689.3C693.18 207.2 696.6 204.03 696.93 200.16C699.13 174.4 690.02 149.38 672.01 131.32C655.77 115.03 634.4 106 611.44 105.41H600.5C552.88 105.41 513.59 144.24 513.59 192.61C513.59 240.98 552.29 279.81 600.5 279.81H621.35C625.02 279.81 628.55 278.35 631.14 275.75L656.28 250.52H597.08L597.09 250.51Z" fill="#0C2867"/>
<path d="M336.68 107.86C330.29 106.34 323.64 105.41 316.74 105.41H294.51C292.18 105.41 289.91 106.3 288.17 107.85C275.52 119.18 284.85 134.61 296.68 134.61H320.25C339.5 134.61 357.65 144.84 366.58 161.9C389.75 206.15 358.42 250.43 316.75 250.43H302.69C274.63 250.43 251.89 227.68 251.89 199.63V12.6299L226.73 37.8799C224.15 40.4699 222.7 43.9799 222.7 47.6399V192.7C222.7 240.48 261.4 279.9 309.61 279.9H316.76C364.38 279.9 403.67 241.07 403.67 192.7C403.67 151.25 375.15 116.98 336.7 107.95V107.87L336.68 107.86Z" fill="#0C2867"/>
</g>
<path d="M100.76 105.4H96.7098C49.0898 105.4 9.81982 144.25 9.81982 192.61C9.81982 240.97 48.5098 279.82 96.7098 279.82H100.76C148.38 279.82 187.65 240.97 187.65 192.61C187.65 144.25 148.96 105.4 100.76 105.4ZM80.9398 255.78L84.7798 200.59L85.2498 193.18L85.8298 185.03L163.15 171.15L70.6398 172.88L48.6698 142.39L163.16 171.14L80.9498 255.77L80.9398 255.78Z" fill="#0C2867"/>
<g opacity="0.86">
<path d="M163.15 171.16L85.8299 185.03L85.2499 193.18L84.7799 200.59L45.1899 173.36L70.6399 172.89L163.15 171.16Z" fill="white"/>
</g>
</svg>
