<svg width="33" height="32" viewBox="0 0 33 32" fill="none" xmlns="http://www.w3.org/2000/svg">
<path d="M6.44922 26.3229C6.44922 23.3809 8.77163 19.7188 15.4599 19.7188" stroke="#09235C" stroke-width="2" stroke-linecap="round" stroke-linejoin="round"/>
<path fill-rule="evenodd" clip-rule="evenodd" d="M21.2186 9.75576C21.2186 12.934 18.6411 15.5115 15.4628 15.5115C12.2846 15.5115 9.70703 12.934 9.70703 9.75576C9.70703 6.57752 12.2846 4 15.4628 4C18.6411 4 21.2186 6.57752 21.2186 9.75576Z" stroke="#09235C" stroke-width="2" stroke-linecap="round" stroke-linejoin="round"/>
<path d="M22.9282 26.2692L23.0692 25.8878C23.6005 24.4496 24.7328 23.3157 26.1689 22.7836L26.5497 22.6424L26.1689 22.5013C24.7328 21.9692 23.6005 20.8352 23.0692 19.397L22.9282 19.0156L22.7873 19.397C22.256 20.8352 21.1237 21.9692 19.6876 22.5013L19.3066 22.6424L19.6876 22.7836C21.1237 23.3157 22.256 24.4496 22.7873 25.8878L22.9282 26.2692Z" stroke="#09235C" stroke-width="2" stroke-linecap="round" stroke-linejoin="round"/>
<path d="M15.5187 27.9993C15.7582 27.2115 16.3738 26.5949 17.1604 26.3552C16.3738 26.1153 15.7582 25.4988 15.5187 24.7109C15.2792 25.4988 14.6636 26.1153 13.877 26.3552C14.6636 26.5949 15.2792 27.2115 15.5187 27.9993Z" stroke="#09235C" stroke-width="2" stroke-linecap="round" stroke-linejoin="round"/>
</svg>
