<svg width="500" height="500" viewBox="0 0 500 500" fill="none" xmlns="http://www.w3.org/2000/svg">
<path d="M33.1299 463.404H462.725" stroke="#263238" stroke-width="2" stroke-miterlimit="10" stroke-linecap="round" stroke-linejoin="round"/>
<path d="M326.634 60.632V64.456" stroke="#263238" stroke-width="2" stroke-miterlimit="10" stroke-linecap="round" stroke-linejoin="round"/>
<path d="M326.634 68.767V72.591" stroke="#263238" stroke-width="2" stroke-miterlimit="10" stroke-linecap="round" stroke-linejoin="round"/>
<path d="M320.653 66.6119H324.478" stroke="#263238" stroke-width="2" stroke-miterlimit="10" stroke-linecap="round" stroke-linejoin="round"/>
<path d="M328.789 66.6119H332.613" stroke="#263238" stroke-width="2" stroke-miterlimit="10" stroke-linecap="round" stroke-linejoin="round"/>
<path d="M426.184 416.593V420.417" stroke="#263238" stroke-width="2" stroke-miterlimit="10" stroke-linecap="round" stroke-linejoin="round"/>
<path d="M426.184 424.728V428.553" stroke="#263238" stroke-width="2" stroke-miterlimit="10" stroke-linecap="round" stroke-linejoin="round"/>
<path d="M420.204 422.572H424.028" stroke="#263238" stroke-width="2" stroke-miterlimit="10" stroke-linecap="round" stroke-linejoin="round"/>
<path d="M428.34 422.572H432.164" stroke="#263238" stroke-width="2" stroke-miterlimit="10" stroke-linecap="round" stroke-linejoin="round"/>
<path d="M51.135 379.691V383.516" stroke="#263238" stroke-width="2" stroke-miterlimit="10" stroke-linecap="round" stroke-linejoin="round"/>
<path d="M51.135 387.828V391.653" stroke="#263238" stroke-width="2" stroke-miterlimit="10" stroke-linecap="round" stroke-linejoin="round"/>
<path d="M45.155 385.672H48.979" stroke="#263238" stroke-width="2" stroke-miterlimit="10" stroke-linecap="round" stroke-linejoin="round"/>
<path d="M53.291 385.672H57.115" stroke="#263238" stroke-width="2" stroke-miterlimit="10" stroke-linecap="round" stroke-linejoin="round"/>
<path d="M131.291 30.99V34.814" stroke="#263238" stroke-width="2" stroke-miterlimit="10" stroke-linecap="round" stroke-linejoin="round"/>
<path d="M131.291 39.125V42.949" stroke="#263238" stroke-width="2" stroke-miterlimit="10" stroke-linecap="round" stroke-linejoin="round"/>
<path d="M125.312 36.97H129.136" stroke="#263238" stroke-width="2" stroke-miterlimit="10" stroke-linecap="round" stroke-linejoin="round"/>
<path d="M133.447 36.97H137.272" stroke="#263238" stroke-width="2" stroke-miterlimit="10" stroke-linecap="round" stroke-linejoin="round"/>
<path d="M415.766 41.458C409.296 40.368 401.179 52.87 401.179 52.87C401.179 52.87 400.079 36.601 392.16 36.975C391.07 37.025 389.693 37.324 388.439 38.732C376.277 52.389 394.439 85.309 394.439 85.309C394.439 85.309 426.091 59.614 419.106 44.049C418.294 42.239 416.87 41.645 415.766 41.458Z" fill="#FF367C"/>
<path d="M450.584 94.422C446.827 92.075 438.538 97.789 438.538 97.789C438.538 97.789 442.041 87.349 437.001 85.543C436.307 85.293 435.371 85.125 434.225 85.682C423.114 91.075 425.972 116.306 425.972 116.306C425.972 116.306 452.353 108.418 452.001 96.901C451.962 95.561 451.225 94.823 450.584 94.422Z" fill="#FF367C"/>
<path d="M193.722 338.172C193.722 338.172 178.69 375.233 169.954 399.141C161.218 423.05 150.733 462.343 150.733 462.343H268.417L274.302 409.191L283.154 462.343H375.083C375.083 462.343 374.346 411.11 369.461 385.86C364.577 360.611 348.523 317.298 348.523 317.298L193.722 338.172Z" fill="#FFC051"/>
<path opacity="0.2965" d="M348.516 317.301L346.315 317.597V462.341H350.519V323.049C350.13 321.981 348.516 317.301 348.516 317.301ZM338.564 318.649L334.36 319.207V462.342H338.564V318.649ZM326.641 320.258L322.437 320.816V462.342H326.641V320.258ZM314.687 321.867L310.483 322.426V462.341H314.687V321.867ZM302.764 323.477L298.56 324.035V462.341H302.764V323.477ZM290.809 325.086L286.605 325.644V462.341H290.809V325.086ZM278.886 326.695L274.682 327.253V411.564L278.886 436.756V326.695ZM266.931 328.304L262.727 328.862V462.341H266.931V328.304ZM255.008 329.913L250.804 330.472V462.341H255.008V329.913ZM243.053 331.523L238.849 332.081V462.341H243.053V331.523ZM231.097 333.133L226.893 333.691V462.342H231.097V333.133ZM219.175 334.742L214.971 335.301V462.341H219.175V334.742ZM207.22 336.352L203.016 336.91V462.341H207.22V336.352ZM195.298 337.961L193.722 338.158C193.722 338.158 191.718 343.182 191.094 344.727V462.342H195.298V337.961ZM358.238 345.581V462.341H362.442V359.113C361.053 354.499 359.657 349.938 358.238 345.581ZM183.342 364.302C181.937 367.869 180.606 371.459 179.138 375.24V462.342H183.342V364.302ZM370.193 390.479V462.341H374.397V442.208C373.842 426.495 372.835 407.067 370.193 390.479ZM171.42 395.306C170.967 396.527 170.368 397.984 169.942 399.15C169.047 401.597 168.133 404.616 167.216 407.328V462.341H171.42V395.306ZM159.464 431.764C157.517 438.311 156.677 441.108 155.26 446.149V462.341H159.464V431.764Z" fill="white"/>
<path d="M199.483 346.921L160.707 462.343" stroke="#263238" stroke-width="2" stroke-miterlimit="10" stroke-linecap="round" stroke-linejoin="round"/>
<path d="M187.476 383.394C187.476 383.394 200.402 386.397 206.411 379.39C212.42 372.382 218.311 343.493 218.311 343.493" stroke="#263238" stroke-width="2" stroke-miterlimit="10" stroke-linecap="round" stroke-linejoin="round"/>
<path d="M366.497 391.652L368.846 460.541" stroke="#263238" stroke-width="2" stroke-miterlimit="10" stroke-linecap="round" stroke-linejoin="round"/>
<path d="M209.448 128.74C209.448 128.74 218.322 124.575 231.755 122.63C245.188 120.687 260.628 120.911 260.628 120.911" stroke="#263238" stroke-width="2" stroke-miterlimit="10" stroke-linecap="round" stroke-linejoin="round"/>
<path d="M210.305 124.238C210.305 124.238 170.781 133.916 143.736 162.871C116.691 191.826 92.0671 250.039 92.0671 250.039L119.22 280.286C119.22 280.286 125.607 296.846 121.546 316.222C117.486 335.598 114.492 352.829 102.979 357.792C83.0431 366.385 64.4441 323.205 64.4441 323.205C64.4441 323.205 67.9481 344.031 73.1551 353.162C78.3621 362.293 89.7861 377.676 104.417 376.766C124.63 375.508 145.687 351.779 155.311 327.718C164.935 303.658 167.685 270.318 167.685 270.318C167.685 270.318 168.632 276.841 171.438 282.279C174.245 287.717 174.75 290.556 173.872 296.169C172.996 301.782 169.684 309.623 174.771 315.609C179.859 321.595 190.384 321.753 190.384 321.753L349.266 298.576L325.436 179.042L399.232 171.355C399.232 171.355 376.171 127.923 312.752 121.773C249.334 115.624 258.174 121.004 258.174 121.004L241.262 173.661C241.262 173.661 232.422 159.056 226.272 149.831C220.123 140.607 210.305 124.238 210.305 124.238Z" fill="#FF367C"/>
<path d="M207.698 121.101C207.698 121.101 196.676 123.763 189.216 131.397C181.757 139.029 179.859 160.063 179.859 160.063C179.859 160.063 191.25 154.223 199.577 149.191C207.903 144.161 214.216 149.357 214.216 149.357C214.216 149.357 207.044 156.392 204.268 164.024C201.492 171.658 201.276 179.543 201.276 179.543C201.276 179.543 211.38 176.375 220.417 176.285C229.454 176.193 246.309 189.255 246.309 189.255C246.309 189.255 250.163 169.315 253.806 164.804C257.449 160.294 289.162 147.43 289.162 147.43C289.162 147.43 286.921 141.667 279.544 135.75C272.168 129.833 265.699 129.335 265.699 129.335C265.699 129.335 270.216 127.108 276.963 125.915C283.708 124.722 293.774 123.967 293.774 123.967C293.774 123.967 287.797 115.887 281.778 112.676C275.759 109.465 262.189 111.343 259.755 112.676C257.321 114.009 252.728 124.549 248.218 138.427C243.707 152.306 239.891 171.735 239.891 171.735C239.891 171.735 233.579 155.317 224.906 142.48C216.23 129.643 207.698 121.101 207.698 121.101Z" fill="#263238"/>
<path d="M118.786 279.253C118.786 279.253 121.718 288.669 120.137 306.265C118.555 323.861 114.473 352.721 100.858 354.857C78.7911 358.318 64.4441 323.206 64.4441 323.206C64.4441 323.206 67.8941 350.991 79.6171 362.35C85.1301 367.692 101.247 373.541 110.098 364.508C118.95 355.476 127.526 334.671 127.401 321.457C127.31 311.927 127.64 297.019 125.953 289.844C123.618 279.914 118.786 279.253 118.786 279.253Z" fill="#263238"/>
<path d="M71.7052 224.911C70.5482 224.998 69.6802 225.987 69.7672 227.144C69.8822 228.669 69.9752 230.203 70.0952 231.71C70.7032 239.307 71.3812 246.362 72.0332 252.698C72.2612 254.917 72.8762 260.586 72.8872 260.679C73.0252 261.831 74.0662 262.656 75.2192 262.518C76.3722 262.379 77.1972 261.338 77.0582 260.186C77.0472 260.098 76.4312 254.476 76.2042 252.271C75.5562 245.965 74.9052 238.945 74.2992 231.381C74.1792 229.881 74.0522 228.367 73.9382 226.849C73.8512 225.692 72.8622 224.823 71.7052 224.911Z" fill="#263238"/>
<path d="M70.8181 203.168C69.6601 203.09 68.6621 203.981 68.5851 205.139C68.5591 205.534 68.5251 205.915 68.4861 206.321C68.3761 207.476 69.2021 208.51 70.3581 208.62C71.5141 208.73 72.5471 207.871 72.6571 206.716C72.6991 206.27 72.7271 205.837 72.7561 205.402C72.8331 204.243 71.9761 203.245 70.8181 203.168Z" fill="#263238"/>
<path d="M75.1531 120.894C75.1531 120.894 72.0521 135.424 77.2551 139.582C76.3801 143.012 75.4501 147.154 74.5291 151.766C73.5711 148.574 71.2031 142.64 65.5631 138.366C57.5811 132.318 50.6191 133.571 50.6191 133.571C50.6191 133.571 53.2601 145.013 60.0121 148.843C66.0801 152.285 72.7011 153.545 74.1351 153.803C73.1391 158.983 72.1231 164.882 71.0801 171.9C70.7411 174.186 70.4661 176.627 70.2261 179.191L74.3971 179.585C74.6301 177.094 74.9231 174.731 75.2511 172.523C77.3941 158.095 79.4231 148.073 81.3271 140.6C88.8961 139.978 95.9101 128.677 95.9101 128.677L75.1531 120.894ZM103.958 149.961C101.267 149.874 95.0211 150.354 88.1271 155.578C78.9351 162.542 77.0911 173.642 77.0911 173.642C77.0911 173.642 86.7231 172.075 94.4991 167.665C102.274 163.254 105.337 150.093 105.337 150.093C105.337 150.093 104.855 149.989 103.958 149.961Z" fill="#263238"/>
<path d="M95.1862 85.825C95.1862 85.825 88.7602 69.905 78.1002 72.988C67.4402 76.071 71.1922 90.056 71.1922 90.056C71.1922 90.056 56.2152 81.53 51.8132 93.691C47.4122 105.853 65.8952 108.757 65.8952 108.757C65.8952 108.757 50.3512 116.213 57.5032 125.386C64.6552 134.559 81.8242 125.132 81.8242 125.132C81.8242 125.132 89.3032 137.82 102.979 137.446C116.655 137.072 112.224 122.639 112.224 122.639C112.224 122.639 127.651 125.757 130.859 114.991C134.066 104.225 118.482 101.245 118.482 101.245C118.482 101.245 128.637 89.894 119.43 82.401C110.22 74.908 95.1862 85.825 95.1862 85.825Z" fill="#FFC051"/>
<path d="M77.1732 100.454C78.1012 95.4551 85.5082 92.6381 93.7182 94.1621C101.928 95.6861 107.831 100.973 106.903 105.972C105.976 110.972 98.5682 113.788 90.3582 112.264C82.1482 110.74 76.2452 105.452 77.1732 100.454Z" fill="#FF367C"/>
<path d="M85.0623 89.7041L89.8033 105.807" stroke="#263238" stroke-width="2" stroke-miterlimit="10" stroke-linecap="round" stroke-linejoin="round"/>
<path d="M96.5542 90.6981L89.8032 105.806" stroke="#263238" stroke-width="2" stroke-miterlimit="10" stroke-linecap="round" stroke-linejoin="round"/>
<path d="M89.8872 106.356L103.221 95.8341" stroke="#263238" stroke-width="2" stroke-miterlimit="10" stroke-linecap="round" stroke-linejoin="round"/>
<path d="M90.5303 106.356L106.785 101.428" stroke="#263238" stroke-width="2" stroke-miterlimit="10" stroke-linecap="round" stroke-linejoin="round"/>
<path d="M82.2002 89.1971C82.2002 87.6741 83.4352 86.4391 84.9582 86.4391C86.4812 86.4391 87.7162 87.6741 87.7162 89.1971C87.7162 90.7201 86.4812 91.9541 84.9582 91.9541C83.4352 91.9541 82.2002 90.7201 82.2002 89.1971Z" fill="#263238"/>
<path d="M94.5613 90.6981C94.5613 89.1751 95.7953 87.9401 97.3183 87.9401C98.8413 87.9401 100.076 89.1751 100.076 90.6981C100.076 92.2211 98.8413 93.4561 97.3183 93.4561C95.7953 93.4561 94.5613 92.2211 94.5613 90.6981Z" fill="#263238"/>
<path d="M101.483 94.7121C101.483 93.1891 102.718 91.9541 104.241 91.9541C105.764 91.9541 106.999 93.1891 106.999 94.7121C106.999 96.2351 105.764 97.4701 104.241 97.4701C102.718 97.4701 101.483 96.2351 101.483 94.7121Z" fill="#263238"/>
<path d="M104.241 101.428C104.241 99.905 105.476 98.67 106.999 98.67C108.522 98.67 109.757 99.905 109.757 101.428C109.757 102.951 108.522 104.185 106.999 104.185C105.476 104.185 104.241 102.951 104.241 101.428Z" fill="#263238"/>
<path d="M123.204 286.134C123.204 286.134 107.409 267.108 94.9701 253.18C82.5291 239.252 71.4321 225.018 71.4321 225.018" stroke="#263238" stroke-width="2" stroke-miterlimit="10" stroke-linecap="round" stroke-linejoin="round"/>
<path d="M80.9011 349.905C80.9011 349.905 65.5161 329.011 52.2781 297.689C39.0401 266.366 34.4631 226.586 36.8001 209.759C38.4841 197.637 40.4161 189.257 49.3381 175.893C58.2601 162.529 67.9821 155.242 71.4321 155.051C78.5691 154.656 72.8301 165.442 69.7471 170.319C66.6641 175.196 61.2401 184.655 61.2401 184.655C61.2401 184.655 74.8991 175.06 81.8361 181.034C88.7731 187.008 91.7701 200.2 87.7061 201.173C83.6421 202.144 82.0861 195.114 78.4771 192.81C74.8681 190.505 64.4451 193.596 64.4451 193.596C64.4451 193.596 73.8351 190.923 78.3411 192.778C82.8471 194.634 87.7281 213.525 83.1331 215.911C78.5391 218.297 74.5991 204.244 74.5991 204.244L62.7681 204.382C62.7681 204.382 70.6211 205.261 73.3281 211.855C76.0351 218.449 80.0821 226.693 75.9291 227.489C71.7761 228.284 66.1561 217.403 66.1561 217.403L58.1901 214.908" stroke="#263238" stroke-width="2" stroke-miterlimit="10" stroke-linecap="round" stroke-linejoin="round"/>
<path d="M243.645 184.655C243.645 184.655 249.882 197.98 253.287 213.766C256.691 229.551 258.478 302.949 258.478 302.949" stroke="#263238" stroke-width="2" stroke-miterlimit="10" stroke-linecap="round" stroke-linejoin="round"/>
<path d="M233.343 213.944C233.343 211.633 235.218 209.758 237.529 209.758C239.841 209.758 241.715 211.633 241.715 213.944C241.715 216.256 239.841 218.13 237.529 218.13C235.218 218.131 233.343 216.257 233.343 213.944Z" fill="#263238"/>
<path d="M236.815 239.615C236.815 237.304 238.689 235.429 241.001 235.429C243.313 235.429 245.187 237.304 245.187 239.615C245.187 241.927 243.313 243.801 241.001 243.801C238.689 243.802 236.815 241.928 236.815 239.615Z" fill="#263238"/>
<path d="M237.802 265.773C237.802 263.461 239.676 261.587 241.987 261.587C244.299 261.587 246.173 263.461 246.173 265.773C246.173 268.084 244.299 269.959 241.987 269.959C239.676 269.959 237.802 268.084 237.802 265.773Z" fill="#263238"/>
<path d="M185.957 267.306C188.212 280.837 186.475 296.736 194.553 308.855C196.652 312.003 202.22 312.331 204.989 320.939" stroke="#263238" stroke-width="2" stroke-miterlimit="10" stroke-linecap="round" stroke-linejoin="round"/>
<path d="M228.41 302.948C221.525 298.185 214.269 282.281 209.495 283.474C206.58 284.203 209.418 291.156 210.314 292.275C216.524 300.039 214.842 316.222 228.41 316.222" stroke="#263238" stroke-width="2" stroke-miterlimit="10" stroke-linecap="round" stroke-linejoin="round"/>
<path d="M177.666 197.636C177.666 226.126 156.021 251.328 169.886 279.057C169.886 279.057 173.866 288.466 172.6 296.246C171.334 304.027 170.429 312.53 175.314 315.788C180.2 319.044 191.056 323.206 191.056 323.206" stroke="#263238" stroke-width="2" stroke-miterlimit="10" stroke-linecap="round" stroke-linejoin="round"/>
<path d="M217.105 57.987C217.105 57.987 217.531 67.632 211.741 79.322C205.951 91.012 198.053 90.393 198.053 90.393L205.157 103.939C205.157 103.939 192.708 103.979 185.709 94.15C178.71 84.321 177.163 72.138 185.662 64.565C190.685 60.088 199.773 59.645 199.773 59.645C199.773 59.645 207.457 42.8 220.622 40.125C235.187 37.166 237.811 44.868 246.174 45.727C253.314 46.461 258.519 42.989 264.607 42.989C274.71 42.989 281.344 54.684 273.539 66.475C266.674 76.845 255.768 75.756 255.768 75.756C255.768 75.756 249.961 74.835 243.143 71.788C240.112 70.433 234.324 66.157 231.433 63.286C223.884 55.792 217.105 57.987 217.105 57.987Z" fill="#FF367C"/>
<path d="M194.523 40.126L201.582 62.136" stroke="#FF367C" stroke-width="2" stroke-miterlimit="10" stroke-linecap="round" stroke-linejoin="round"/>
<path d="M184.14 52.4081L201.582 59.6461" stroke="#FF367C" stroke-width="2" stroke-miterlimit="10" stroke-linecap="round" stroke-linejoin="round"/>
<path d="M213.656 86.207C214.028 84.302 215.873 83.058 217.778 83.43C219.682 83.801 220.926 85.646 220.555 87.551C220.184 89.456 218.34 90.7 216.434 90.329C214.529 89.957 213.285 88.112 213.656 86.207Z" fill="#FF367C"/>
<path d="M255.496 79.33C253.313 63.246 238.503 51.978 222.419 54.162C206.335 56.346 195.067 71.155 197.251 87.239C199.435 103.323 214.244 114.591 230.327 112.407C246.41 110.223 257.68 95.414 255.496 79.33Z" stroke="#263238" stroke-width="2" stroke-miterlimit="10" stroke-linecap="round" stroke-linejoin="round"/>
<path d="M228.514 80.698C228.834 79.055 227.761 77.464 226.119 77.144C224.476 76.824 222.885 77.897 222.565 79.54C222.245 81.183 223.317 82.774 224.961 83.094C226.603 83.413 228.195 82.341 228.514 80.698Z" fill="#263238"/>
<path d="M246.117 80.9121C246.437 79.2691 245.364 77.6781 243.722 77.3581C242.079 77.0381 240.488 78.1111 240.167 79.7541C239.848 81.3971 240.92 82.9881 242.563 83.3081C244.206 83.6281 245.797 82.5551 246.117 80.9121Z" fill="#263238"/>
<path d="M234.896 79.322L238.941 92.234L231.432 92.013" stroke="#263238" stroke-width="2" stroke-miterlimit="10" stroke-linecap="round" stroke-linejoin="round"/>
<path d="M230.939 97.301C230.939 97.301 228.257 100.044 224.693 99.331C221.129 98.617 220.64 93.842 220.64 93.842" stroke="#263238" stroke-width="2" stroke-miterlimit="10" stroke-linecap="round" stroke-linejoin="round"/>
<path d="M186.934 322.531L191.056 343.492L350.615 319.448L348.182 297.061L186.934 322.531Z" fill="#263238"/>
<path d="M251.063 150.082H453.682V391.402H290.54L251.063 349.905V150.082Z" fill="white"/>
<path d="M251.063 150.082H453.682V391.402H290.493V349.902H251.062V150.082H251.063Z" stroke="#FF367C" stroke-width="2" stroke-miterlimit="10" stroke-linecap="round" stroke-linejoin="round"/>
<path d="M251.063 349.905L290.54 391.402" stroke="#FF367C" stroke-width="2" stroke-miterlimit="10" stroke-linecap="round" stroke-linejoin="round"/>
<path d="M268.439 199.157V338.392" stroke="#FF367C" stroke-width="2" stroke-miterlimit="10" stroke-linecap="round" stroke-linejoin="round"/>
<path d="M402.589 168.848H302.868" stroke="#FF367C" stroke-width="2" stroke-miterlimit="10" stroke-linecap="round" stroke-linejoin="round"/>
<path d="M438.453 197.636V338.392" stroke="#FF367C" stroke-width="2" stroke-miterlimit="10" stroke-linecap="round" stroke-linejoin="round"/>
<path d="M263.338 167.642C263.338 165.099 265.4 163.037 267.943 163.037C270.487 163.037 272.549 165.099 272.549 167.642C272.549 170.185 270.487 172.248 267.943 172.248C265.4 172.247 263.338 170.185 263.338 167.642Z" fill="#FF367C"/>
<path d="M276.892 167.754C276.892 167.754 288.776 162.335 292.222 164.745C295.668 167.154 292.744 171.317 289.512 171.152C286.281 170.986 276.892 167.754 276.892 167.754Z" fill="#FF367C"/>
<path d="M267.831 174.833C267.831 174.833 273.25 186.716 270.84 190.163C268.43 193.609 264.268 190.685 264.433 187.453C264.6 184.222 267.831 174.833 267.831 174.833Z" fill="#FF367C"/>
<path d="M274.117 173.42C274.117 173.42 286.352 177.991 287.085 182.132C287.818 186.273 282.806 187.149 280.638 184.747C278.471 182.345 274.117 173.42 274.117 173.42Z" fill="#FF367C"/>
<path d="M361.767 319.39C361.767 319.39 374.001 323.961 374.734 328.102C375.468 332.243 370.456 333.118 368.288 330.716C366.121 328.314 361.767 319.39 361.767 319.39Z" stroke="#FF367C" stroke-width="2" stroke-miterlimit="10" stroke-linecap="round" stroke-linejoin="round"/>
<path d="M353.344 323.597C353.344 323.597 358.763 339.657 356.353 344.317C353.944 348.975 349.781 345.022 349.946 340.654C350.112 336.287 353.344 323.597 353.344 323.597Z" stroke="#FF367C" stroke-width="2" stroke-miterlimit="10" stroke-linecap="round" stroke-linejoin="round"/>
<path d="M344.323 319.39C344.323 319.39 332.089 323.961 331.356 328.102C330.622 332.243 335.634 333.118 337.802 330.716C339.969 328.314 344.323 319.39 344.323 319.39Z" stroke="#FF367C" stroke-width="2" stroke-miterlimit="10" stroke-linecap="round" stroke-linejoin="round"/>
<path d="M442.942 168.733C442.942 166.19 440.881 164.127 438.338 164.127C435.795 164.127 433.733 166.189 433.733 168.733C433.733 171.276 435.795 173.338 438.338 173.338C440.881 173.338 442.942 171.276 442.942 168.733Z" fill="#FF367C"/>
<path d="M429.388 168.845C429.388 168.845 417.505 163.426 414.058 165.836C410.612 168.245 413.536 172.408 416.768 172.242C419.999 172.077 429.388 168.845 429.388 168.845Z" fill="#FF367C"/>
<path d="M438.449 175.924C438.449 175.924 433.031 187.807 435.44 191.253C437.85 194.7 442.013 191.775 441.847 188.544C441.681 185.313 438.449 175.924 438.449 175.924Z" fill="#FF367C"/>
<path d="M432.164 174.511C432.164 174.511 419.93 179.082 419.197 183.223C418.463 187.364 423.475 188.239 425.643 185.837C427.811 183.436 432.164 174.511 432.164 174.511Z" fill="#FF367C"/>
<path d="M442.942 370.991C442.942 373.534 440.881 375.597 438.338 375.597C435.795 375.597 433.733 373.535 433.733 370.991C433.733 368.448 435.795 366.386 438.338 366.386C440.881 366.386 442.942 368.448 442.942 370.991Z" fill="#FF367C"/>
<path d="M429.388 370.879C429.388 370.879 417.505 376.298 414.058 373.889C410.612 371.479 413.536 367.316 416.768 367.482C419.999 367.648 429.388 370.879 429.388 370.879Z" fill="#FF367C"/>
<path d="M438.449 363.801C438.449 363.801 433.031 351.917 435.44 348.471C437.85 345.024 442.013 347.949 441.847 351.181C441.681 354.413 438.449 363.801 438.449 363.801Z" fill="#FF367C"/>
<path d="M432.164 365.214C432.164 365.214 419.93 360.642 419.197 356.501C418.463 352.36 423.475 351.485 425.643 353.887C427.811 356.29 432.164 365.214 432.164 365.214Z" fill="#FF367C"/>
<path d="M348.355 310.861C348.355 308.044 350.639 305.761 353.456 305.761C356.273 305.761 358.557 308.045 358.557 310.861C358.557 313.678 356.273 315.962 353.456 315.962C350.639 315.962 348.355 313.678 348.355 310.861Z" fill="#FF367C"/>
<path d="M368.287 310.985C368.287 310.985 389.227 304.984 395.301 307.652C401.375 310.32 396.222 314.931 390.526 314.748C384.832 314.565 368.287 310.985 368.287 310.985Z" stroke="#FF367C" stroke-width="2" stroke-miterlimit="10" stroke-linecap="round" stroke-linejoin="round"/>
<path d="M337.802 310.985C337.802 310.985 316.863 304.984 310.789 307.652C304.715 310.32 309.868 314.931 315.564 314.748C321.258 314.565 337.802 310.985 337.802 310.985Z" stroke="#FF367C" stroke-width="2" stroke-miterlimit="10" stroke-linecap="round" stroke-linejoin="round"/>
<path d="M374.211 128.743C373.396 128.7 372.574 128.827 371.814 129.072C368.774 130.049 369.777 148.943 369.777 148.943H378.021C374.085 157.219 372.548 167.631 378.185 167.631C380.373 167.631 382.264 165.582 383.802 164.116L383.867 163.986C384.083 168.066 385.493 171.146 388.367 171.146C390.399 171.146 393.146 170.215 394.574 168.749L394.804 168.321C395.32 170.013 396.333 171.146 398.055 171.146C403.858 171.146 407.847 161.32 409.781 158.172C411.715 155.025 420.59 150.067 415.988 145.034C414.213 143.094 411.978 142.635 409.616 143.162L409.781 142.867C409.557 142.135 407.897 140.052 407.219 139.516C405.144 137.877 402.478 137.725 399.698 138.596L400.06 138.038C395.952 135.026 390.372 135.483 385.477 139.089C384.465 137.742 383.546 136.547 381.47 133.571C379.231 130.365 376.654 128.873 374.211 128.743Z" fill="white"/>
<path d="M415.986 145.049C411.385 140.018 403.645 144.663 398.787 151.837C393.929 159.01 392.247 171.156 398.049 171.156C403.852 171.156 407.856 161.334 409.79 158.187C411.724 155.04 420.588 150.082 415.986 145.049Z" stroke="#263238" stroke-width="2" stroke-miterlimit="10" stroke-linecap="round" stroke-linejoin="round"/>
<path d="M409.79 142.879C409.566 142.146 407.907 140.058 407.229 139.523C401.976 135.374 392.97 140.468 387.774 148.733C382.578 156.997 382.157 171.156 388.364 171.156C390.396 171.156 393.158 170.199 394.586 168.732" stroke="#263238" stroke-width="2" stroke-miterlimit="10" stroke-linecap="round" stroke-linejoin="round"/>
<path d="M400.047 138.048C394.388 133.899 385.921 136.217 380.325 144.482C374.728 152.747 371.501 167.641 378.185 167.641C380.374 167.641 382.255 165.593 383.792 164.126" stroke="#263238" stroke-width="2" stroke-miterlimit="10" stroke-linecap="round" stroke-linejoin="round"/>
<path d="M369.786 148.944C369.786 148.944 368.784 130.034 371.824 129.057C374.863 128.08 378.492 129.295 381.476 133.571C384.46 137.848 384.917 139.674 384.917 139.674" stroke="#263238" stroke-width="2" stroke-miterlimit="10" stroke-linecap="round" stroke-linejoin="round"/>
<path d="M311.502 225.703H303.583V247.174H297.224V225.703H289.451V220.793H311.502V225.703Z" fill="#FF367C"/>
<path d="M336.234 247.175H329.911V236.159H320.544V247.175H314.184V220.794H320.544V231.267H329.911V220.794H336.234V247.175Z" fill="#FF367C"/>
<path d="M355.567 242.246H346.852L345.329 247.174H338.535L348.21 220.793H354.19L363.938 247.174H357.108L355.567 242.246ZM348.374 237.336H354.045L351.2 228.186L348.374 237.336Z" fill="#FF367C"/>
<path d="M387.891 247.175H381.568L372.219 230.759V247.175H365.859V220.794H372.219L381.55 237.21V220.794H387.892V247.175H387.891Z" fill="#FF367C"/>
<path d="M400.882 237.354L398.273 240.217V247.175H391.913V220.794H398.273V232.427L400.483 229.075L406.172 220.794H414.036L405.122 232.463L414.036 247.175H406.498L400.882 237.354Z" fill="#FF367C"/>
<path d="M321.231 276.774L326.087 265.323H332.954L324.456 282.228V291.704H318.006V282.228L309.527 265.323H316.357L321.231 276.774Z" fill="#FF367C"/>
<path d="M356.691 279.057C356.691 281.63 356.214 283.906 355.259 285.887C354.305 287.869 352.949 289.394 351.191 290.463C349.434 291.532 347.432 292.066 345.185 292.066C342.938 292.066 340.945 291.55 339.206 290.517C337.466 289.485 336.11 288.008 335.138 286.087C334.166 284.166 333.655 281.962 333.607 279.473V277.988C333.607 275.403 334.081 273.123 335.029 271.148C335.978 269.172 337.337 267.648 339.106 266.572C340.875 265.497 342.89 264.959 345.149 264.959C347.385 264.959 349.377 265.49 351.128 266.553C352.88 267.617 354.242 269.129 355.214 271.092C356.186 273.056 356.679 275.305 356.691 277.841V279.057ZM350.222 277.952C350.222 275.331 349.784 273.341 348.909 271.982C348.033 270.623 346.779 269.944 345.149 269.944C341.961 269.944 340.275 272.335 340.094 277.12L340.077 279.058C340.077 281.644 340.505 283.631 341.363 285.019C342.221 286.408 343.495 287.103 345.186 287.103C346.792 287.103 348.03 286.421 348.901 285.056C349.77 283.691 350.211 281.728 350.223 279.167V277.952H350.222Z" fill="#FF367C"/>
<path d="M380.661 265.323V282.591C380.661 284.548 380.244 286.241 379.411 287.674C378.577 289.105 377.381 290.195 375.823 290.944C374.266 291.693 372.423 292.068 370.298 292.068C367.084 292.068 364.554 291.234 362.706 289.568C360.857 287.901 359.916 285.617 359.879 282.719V265.324H366.275V282.845C366.347 285.732 367.688 287.175 370.298 287.175C371.614 287.175 372.611 286.813 373.287 286.088C373.964 285.363 374.302 284.185 374.302 282.555V265.324H380.661V265.323Z" fill="#FF367C"/>
<path d="M384.502 288.968C384.502 288.074 384.826 287.34 385.472 286.767C386.117 286.193 386.924 285.906 387.891 285.906C388.857 285.906 389.663 286.193 390.31 286.767C390.956 287.34 391.279 288.074 391.279 288.968C391.279 289.863 390.956 290.596 390.31 291.17C389.664 291.743 388.857 292.03 387.891 292.03C386.924 292.03 386.118 291.743 385.472 291.17C384.826 290.595 384.502 289.862 384.502 288.968ZM390.409 283.351H385.463L384.683 265.323H391.188L390.409 283.351Z" fill="#FF367C"/>
</svg>
